<?xml version="1.0" encoding="UTF-8" standalone="no"?>
<!-- Created with Inkscape (http://www.inkscape.org/) -->
<svg
   xmlns:dc="http://purl.org/dc/elements/1.1/"
   xmlns:cc="http://web.resource.org/cc/"
   xmlns:rdf="http://www.w3.org/1999/02/22-rdf-syntax-ns#"
   xmlns:svg="http://www.w3.org/2000/svg"
   xmlns="http://www.w3.org/2000/svg"
   xmlns:sodipodi="http://inkscape.sourceforge.net/DTD/sodipodi-0.dtd"
   xmlns:inkscape="http://www.inkscape.org/namespaces/inkscape"
   id="svg1340"
   sodipodi:version="0.32"
   inkscape:version="0.40+cvs"
   width="210mm"
   height="297mm"
   sodipodi:docbase="D:\Development\SVN\TortoiseSVN\doc\logo"
   sodipodi:docname="tsvn_logo_front.svg">
  <metadata
     id="metadata1345">
    <rdf:RDF
       id="RDF1347">
      <cc:Work
         rdf:about=""
         id="Work1349">
        <dc:format
           id="format1351">image/svg+xml</dc:format>
        <dc:type
           id="type1353"
           rdf:resource="http://purl.org/dc/dcmitype/StillImage" />
      </cc:Work>
    </rdf:RDF>
  </metadata>
  <defs
     id="defs1343" />
  <sodipodi:namedview
     id="base"
     pagecolor="#ffffff"
     bordercolor="#666666"
     borderopacity="1.0"
     inkscape:pageopacity="0.0"
     inkscape:pageshadow="2"
     inkscape:window-width="1703"
     inkscape:window-height="976"
     inkscape:zoom="11.313708"
     inkscape:cx="44.465232"
     inkscape:cy="1029.2982"
     inkscape:window-x="133"
     inkscape:window-y="26"
     inkscape:current-layer="svg1340" />
  <path
     id="path5328"
     d="M 25.411651,34.172566 L 27.665554,34.835479 L 30.582370,35.498392 L 31.422059,35.542586 L 30.980117,36.647440 L 30.493981,38.105848 L 30.052040,38.945537 L 28.902991,39.741033 L 27.488777,40.094586 L 26.295535,39.741033 L 25.500039,38.989732 L 24.837127,37.089382 L 24.660350,35.763557 L 24.925515,34.702897 L 25.411651,34.172566 z "
     style="stroke-opacity:1.0000000;stroke-linejoin:miter;stroke-linecap:butt;stroke-width:1.0000000px;stroke:#000000;fill-rule:evenodd;fill-opacity:1.0000000;fill:#497fff" />
  <path
     style="fill:#ffffff;fill-opacity:1.0000000;fill-rule:evenodd;stroke:#000000;stroke-width:1.0000000px;stroke-linecap:butt;stroke-linejoin:miter;stroke-opacity:1.0000000"
     d="M 12.562500,27.612181 L 12.562500,27.612181 C 7.1875000,24.424681 2.6875000,20.737181 2.6875000,20.737181 C -0.56250004,17.174681 4.9375000,19.362181 4.9375000,19.362181 L 14.375000,22.674681 L 14.250000,23.549681 L 11.500000,24.737181 L 12.562500,27.612181 z "
     id="path3580"
     sodipodi:nodetypes="cccccccc" />
  <path
     style="fill:#ffffff;fill-opacity:0.56666666;fill-rule:evenodd;stroke:#000000;stroke-width:1.0000000px;stroke-linecap:butt;stroke-linejoin:miter;stroke-opacity:1.0000000"
     d="M 20.437500,11.924681 C 23.500000,8.7996806 27.625000,6.9246806 33.875000,6.2371806 C 39.812500,6.2996806 42.562500,5.9871806 49.375000,9.9246806 C 51.187500,11.299681 55.250000,12.924681 54.062500,15.737181 C 52.187500,19.424681 52.125000,19.174681 51.187500,22.549681 C 50.250000,25.924681 51.000000,25.612181 49.875000,27.174681 C 47.875000,29.299681 49.312500,29.174681 46.750000,30.299681 C 42.812500,28.674681 43.562500,28.987181 41.375000,28.674681 C 37.625000,28.362181 37.625000,28.237181 32.937500,30.487181 C 29.812500,30.987181 32.250000,31.237181 29.062500,30.862181 C 21.437500,27.112181 23.437500,25.924681 19.562500,24.987181 C 15.687500,24.049681 14.937500,24.862181 14.562500,23.112181 C 14.687500,19.612181 17.812500,14.674681 20.437500,11.924681 z "
     id="path3584"
     sodipodi:nodetypes="ccccccccccccc" />
  <path
     sodipodi:nodetypes="ccccccccccccc"
     style="fill:#ffffff;fill-opacity:1.0000000;fill-rule:evenodd;stroke:#000000;stroke-width:1.0000000px;stroke-linecap:butt;stroke-linejoin:miter;stroke-opacity:1.0000000"
     d="M 13.687500,28.112181 C 18.985085,28.301124 20.326419,31.938600 22.875000,33.112181 C 25.949052,33.873733 27.903429,35.487181 31.437500,35.612181 C 35.335256,33.737181 41.116238,33.924681 46.500000,35.424681 C 49.354167,35.487181 50.695624,33.454686 53.250000,27.924681 C 54.615401,23.713079 54.845132,19.853332 56.937500,17.799681 C 58.156022,16.807665 59.033084,15.487181 56.562500,14.487181 C 53.810822,13.924681 52.644896,17.072389 51.187500,21.799681 C 50.321352,25.969476 48.637023,31.043669 45.687500,29.299681 C 40.494221,27.552571 42.601679,28.112181 40.125000,27.987181 C 35.488151,28.299681 31.729246,31.877865 25.687500,28.612181 C 21.213139,25.334535 19.716411,24.503976 14.375000,23.174681 C 13.191469,22.860197 8.0577150,23.446810 13.687500,28.112181 z "
     id="path3590" />
  <path
     sodipodi:nodetypes="ccccccccc"
     style="fill:#ffffff;fill-opacity:1.0000000;fill-rule:evenodd;stroke:#000000;stroke-width:1.0000000px;stroke-linecap:butt;stroke-linejoin:miter;stroke-opacity:1.0000000"
     d="M 13.156250,28.049681 C 12.787775,28.418156 10.619716,30.372750 9.4375000,32.549681 C 8.2370600,34.763061 7.9739690,37.060120 9.3750000,40.112181 C 10.473935,42.997550 13.615883,43.328652 17.312500,44.424681 C 18.884269,44.161373 20.032572,45.142109 21.437500,43.549681 C 22.582210,42.279971 23.423944,42.661125 22.375000,40.299681 C 20.178634,36.790815 19.687500,34.517769 21.687500,32.549681 C 21.125000,31.109222 20.461168,30.385849 17.437500,28.612181 C 16.354007,28.216188 14.979564,27.805088 13.156250,28.049681"
     id="path3593" />
  <path
     sodipodi:nodetypes="ccccc"
     style="fill:#424242;fill-opacity:0.80740738;fill-rule:evenodd;stroke:#000000;stroke-width:1.0000000px;stroke-linecap:butt;stroke-linejoin:miter;stroke-opacity:1.0000000"
     d="M 25.437500,34.237181 C 24.467009,35.520173 24.562500,35.687039 24.812500,37.424681 C 25.500000,39.053978 25.253425,39.706787 28.062500,40.049681 C 31.308944,39.064417 31.344360,37.112181 31.375000,35.674681 C 27.771360,35.549681 26.059552,33.936591 25.437500,34.237181 z "
     id="path3599" />
  <path
     sodipodi:nodetypes="cccccc"
     style="fill:#ffffff;fill-opacity:1.0000000;fill-rule:evenodd;stroke:#000000;stroke-width:1.0000000px;stroke-linecap:butt;stroke-linejoin:miter;stroke-opacity:1.0000000"
     d="M 30.562500,41.174681 C 30.787810,43.513419 33.872618,44.757220 38.687500,45.549681 C 42.321872,45.302805 45.438763,46.982129 47.812500,43.424681 C 48.240975,40.773283 47.631918,36.862181 45.625000,35.237181 C 43.488109,33.362181 36.380854,33.222339 33.250000,34.424681 C 30.536349,35.910142 30.145219,39.068057 30.562500,41.174681 z "
     id="path3601" />
  <path
     sodipodi:nodetypes="cccc"
     style="fill:none;fill-opacity:0.75000000;fill-rule:evenodd;stroke:#000000;stroke-width:1.0000000px;stroke-linecap:butt;stroke-linejoin:miter;stroke-opacity:1.0000000"
     d="M 20.625000,36.737181 C 16.270581,36.112181 13.144748,35.826012 11.625000,42.424681 C 16.628264,44.658200 19.943519,44.904542 21.187500,43.987181 C 24.635057,41.557764 21.081365,38.956507 20.625000,36.737181 z "
     id="path3604" />
  <path
     sodipodi:nodetypes="ccccc"
     style="fill:none;fill-opacity:0.75000000;fill-rule:evenodd;stroke:#000000;stroke-width:1.0000000px;stroke-linecap:butt;stroke-linejoin:miter;stroke-opacity:1.0000000"
     d="M 46.875000,37.487181 C 42.937500,37.698102 39.329789,39.077603 37.062500,44.799681 C 37.690490,45.543701 37.910573,45.536218 39.000000,45.612181 C 41.557194,45.484528 44.252318,46.016692 46.125000,45.174681 C 49.318730,43.076258 47.360910,37.694910 46.812500,37.612181"
     id="path3606" />
  <path
     sodipodi:nodetypes="cc"
     style="fill:none;fill-opacity:0.75000000;fill-rule:evenodd;stroke:#000000;stroke-width:1.0000000px;stroke-linecap:butt;stroke-linejoin:miter;stroke-opacity:1.0000000"
     d="M 15.937500,36.674681 C 16.921048,38.250325 18.107377,39.584926 17.250000,44.112181"
     id="path3608" />
  <path
     sodipodi:nodetypes="cc"
     style="fill:none;fill-opacity:0.75000000;fill-rule:evenodd;stroke:#000000;stroke-width:1.0000000px;stroke-linecap:butt;stroke-linejoin:miter;stroke-opacity:1.0000000"
     d="M 18.437500,36.487181 C 19.553987,38.566707 20.625000,40.585874 20.000000,44.299681"
     id="path3610" />
  <path
     sodipodi:nodetypes="cc"
     style="fill:none;fill-opacity:0.75000000;fill-rule:evenodd;stroke:#000000;stroke-width:1.0000000px;stroke-linecap:butt;stroke-linejoin:miter;stroke-opacity:1.0000000"
     d="M 40.062500,39.799681 C 41.440745,40.253407 43.284017,42.060751 43.750000,45.737181"
     id="path3612" />
  <path
     sodipodi:nodetypes="cc"
     style="fill:none;fill-opacity:0.75000000;fill-rule:evenodd;stroke:#000000;stroke-width:1.0000000px;stroke-linecap:butt;stroke-linejoin:miter;stroke-opacity:1.0000000"
     d="M 42.875000,38.049681 C 44.457853,39.568595 46.212186,40.710925 46.312500,44.862181"
     id="path3614" />
  <path
     sodipodi:nodetypes="cccccc"
     style="fill:#ffffff;fill-opacity:1.0000000;fill-rule:evenodd;stroke:#000000;stroke-width:1.0000000px;stroke-linecap:butt;stroke-linejoin:miter;stroke-opacity:1.0000000"
     d="M 49.187500,34.737181 C 48.800999,37.878676 50.160532,42.597270 53.812500,42.612181 C 59.377484,43.185512 60.758872,41.192824 62.062500,39.237181 C 63.085206,35.498653 59.187445,31.549640 56.437500,29.049681 C 55.341845,28.071690 55.178018,28.112181 53.812500,28.049681 C 51.727419,28.799681 51.265188,34.159493 49.125000,34.737181"
     id="path3616" />
  <path
     sodipodi:nodetypes="cccc"
     style="fill:#ffffff;fill-opacity:1.0000000;fill-rule:evenodd;stroke:#000000;stroke-width:1.0000000px;stroke-linecap:butt;stroke-linejoin:miter;stroke-opacity:1.0000000"
     d="M 53.312500,42.362181 C 57.538447,43.713128 58.450467,42.474215 61.312500,40.424681 C 63.218068,38.519114 61.996769,34.296450 59.312500,32.049681 C 56.738843,32.726024 50.663720,37.338401 53.312500,42.362181 z "
     id="path3618" />
  <path
     sodipodi:nodetypes="cc"
     style="fill:none;fill-opacity:0.75000000;fill-rule:evenodd;stroke:#000000;stroke-width:1.0000000px;stroke-linecap:butt;stroke-linejoin:miter;stroke-opacity:1.0000000"
     d="M 54.062500,35.924681 C 54.041667,35.903848 57.154615,37.480642 58.000000,42.112181"
     id="path3620" />
  <path
     sodipodi:nodetypes="cc"
     style="fill:none;fill-opacity:0.75000000;fill-rule:evenodd;stroke:#000000;stroke-width:1.0000000px;stroke-linecap:butt;stroke-linejoin:miter;stroke-opacity:1.0000000"
     d="M 56.437500,34.049681 C 57.530434,35.032016 59.941151,36.590058 60.812500,40.612181"
     id="path3622" />
  <path
     sodipodi:nodetypes="ccccccccccc"
     style="fill:#ffffff;fill-opacity:1.0000000;fill-rule:evenodd;stroke:#000000;stroke-width:1.0000000px;stroke-linecap:butt;stroke-linejoin:miter;stroke-opacity:1.0000000"
     d="M 64.375000,12.612181 C 65.301831,7.0710186 65.309410,7.0051236 67.062500,5.2996806 C 71.157583,2.6814936 66.227593,17.853139 74.687500,12.487181 C 75.102346,13.186142 77.663662,12.875553 78.500000,13.862181 C 80.613032,15.743830 80.937500,16.583037 80.375000,17.424681 C 78.250000,21.009438 77.408406,19.391275 74.562500,20.362181 C 73.967850,22.081831 72.539519,22.477301 67.687500,22.549681 C 64.539690,22.821009 64.074231,24.874873 62.687500,26.174681 C 61.160982,27.368811 59.545083,29.761767 53.375000,27.737181 C 54.824552,23.614424 54.044419,19.735117 57.437500,17.362181 C 62.570649,18.121694 63.113032,15.136117 64.375000,12.612181 z "
     id="path3624" />
  <path
     sodipodi:nodetypes="cc"
     style="fill:none;fill-opacity:0.75000000;fill-rule:evenodd;stroke:#000000;stroke-width:1.0000000px;stroke-linecap:butt;stroke-linejoin:miter;stroke-opacity:1.0000000"
     d="M 68.812500,16.549681 C 69.994040,18.647901 71.568763,19.987181 75.062500,20.112181"
     id="path3626" />
  <path
     sodipodi:type="arc"
     style="fill:#0079bb;fill-opacity:1.0000000;fill-rule:evenodd;stroke:#000000;stroke-width:1.0000000px;stroke-linecap:butt;stroke-linejoin:miter;stroke-opacity:1.0000000"
     id="path3628"
     sodipodi:cx="74.437500"
     sodipodi:cy="17.424681"
     sodipodi:rx="3.3750000"
     sodipodi:ry="5.3750000"
     d="M 77.812500 17.424681 A 3.3750000 5.3750000 0 1 1  71.062500,17.424681 A 3.3750000 5.3750000 0 1 1  77.812500 17.424681 z"
     transform="translate(1.500000,-9.625000)" />
  <path
     sodipodi:type="arc"
     style="fill:#0079bb;fill-opacity:1.0000000;fill-rule:evenodd;stroke:#000000;stroke-width:1.0000000px;stroke-linecap:butt;stroke-linejoin:miter;stroke-opacity:1.0000000"
     id="path5148"
     sodipodi:cx="74.437500"
     sodipodi:cy="17.424681"
     sodipodi:rx="3.3750000"
     sodipodi:ry="5.3750000"
     d="M 77.812500 17.424681 A 3.3750000 5.3750000 0 1 1  71.062500,17.424681 A 3.3750000 5.3750000 0 1 1  77.812500 17.424681 z"
     transform="translate(-2.437500,-8.937500)" />
  <path
     sodipodi:type="arc"
     style="fill:#000000;fill-opacity:1.0000000"
     id="path5150"
     sodipodi:cx="60.500000"
     sodipodi:cy="14.330931"
     sodipodi:rx="0.81250000"
     sodipodi:ry="1.0937500"
     d="M 61.312500 14.330931 A 0.81250000 1.0937500 0 1 1  59.687500,14.330931 A 0.81250000 1.0937500 0 1 1  61.312500 14.330931 z"
     transform="matrix(1.769231,0.000000,0.000000,2.028571,-33.85096,-19.86539)" />
  <path
     sodipodi:type="arc"
     style="fill:#000000;fill-opacity:1.0000000"
     id="path5912"
     sodipodi:cx="60.500000"
     sodipodi:cy="14.330931"
     sodipodi:rx="0.81250000"
     sodipodi:ry="1.0937500"
     d="M 61.312500 14.330931 A 0.81250000 1.0937500 0 1 1  59.687500,14.330931 A 0.81250000 1.0937500 0 1 1  61.312500 14.330931 z"
     transform="matrix(1.615385,0.000000,0.000000,1.942857,-20.41827,-19.57452)" />
  <path
     id="path3809"
     d="M 14.584078,22.328527 C 15.954097,17.997498 18.694136,13.931634 18.694136,13.931634 L 21.787729,10.572877 L 25.146486,8.5399445 L 29.698486,6.9047600 L 34.206292,6.1534590 L 38.404739,6.2418473 L 43.487069,7.0815367 L 47.597127,8.8934979 L 51.397826,11.279983 L 53.342370,12.826780 L 53.961089,13.710663 L 54.137865,14.682935 L 53.740118,15.655207 L 52.414292,18.130081 L 50.911691,23.124022 L 49.718448,27.013110 L 48.348428,28.913460 L 47.464545,29.443790 L 46.359690,29.664761 L 44.945477,29.134430 L 42.249632,28.162159 L 40.879613,28.029576 L 38.051185,28.338935 L 34.117904,29.487984 L 31.112700,30.062508 L 29.123962,30.018314 L 26.825865,29.222819 L 25.500039,28.515712 L 23.732272,27.101498 L 21.478369,25.687285 L 18.428971,24.273071 L 15.246991,23.212411 L 14.451495,22.726275 L 14.584078,22.328527 z "
     style="stroke-opacity:1.0000000;stroke-linejoin:miter;stroke-linecap:butt;stroke-width:1.0000000px;stroke:#000000;fill-rule:evenodd;fill-opacity:1.0000000;fill:#497fff" />
</svg>
