<svg xmlns="http://www.w3.org/2000/svg" width="1770.667" height="1770.667" version="1.0" viewBox="0 0 1328 1328"><path d="M1205.1 310.6c-7.4 2-14.1 5.8-20.8 11.9l-5.7 5.1-4-2.2c-12.7-7.1-29.3-6.9-43 .4-6.7 3.5-19.2 16.1-24 24.2-2.2 3.6-4.1 6.7-4.2 6.9-.2.2-1.7-.8-3.4-2.2-9.8-8.3-25.3-4.6-38.4 9.3-21.4 22.7-24.6 31.6-36.6 102.8-1.9 11.5-2.6 13.3-11 30.7-4.9 10.2-10.9 21.7-13.5 25.4-12.1 18.4-30 27.1-55.1 27.1h-9.5l1.7-3.2c.9-1.8 1.9-6 2.2-9.4 1-12.5-6.9-22.9-23.6-31.2l-9.5-4.7-10.1.1c-6.7.1-11.6.7-14.5 1.8-2.4.9-4.5 1.6-4.6 1.6-.1 0-1.2-2.7-2.4-5.9-5.6-15.4-18.6-28.5-46.5-46.8-10.5-6.9-23.4-15.4-28.6-18.8-24.7-16.2-64.9-35.7-94.8-45.9-36.7-12.5-63.9-16.3-125.2-17.3-35-.5-38.6-.4-53 1.6-56.2 7.9-97.8 20.2-136 40.2-41.7 21.9-76.6 54.2-109.3 101.1-17.2 24.7-35.3 57.7-43.7 79.8-3.9 10.3-10 30.5-10 33.4 0 1.2-.4 2.7-.9 3.5-1 1.5-2.4 1.1-37.6-11.4-8.2-2.9-33.2-11.7-55.5-19.5-22.3-7.8-46.1-16.2-53-18.7-25.7-9.2-44.7-12.4-53.1-8.9-17.9 7.5-9.2 30.8 20 54 38.5 30.5 97.5 71.8 134.6 94.1 7.2 4.3 13.4 8.2 13.9 8.6.5.4-5.3 7.5-12.9 15.7-22.2 24.1-36.1 43.9-45.2 64.2-8.8 19.8-11.9 36.3-11 58 1 20.8 6.4 40.2 17.7 63.5 14.7 30.2 34.5 42.8 93 59 9.1 2.5 21.2 5.9 27 7.5 9.6 2.7 12.4 3 31.5 3.6 13.2.4 23 .3 26.5-.4 18.2-3.4 33.5-15.3 48-37.1 8.1-12.1 3.6-28.9-17.7-66.3-10.4-18.2-14.7-29.6-16.5-43.4-1.9-13.7 1.6-26.6 10.1-38.1l3.1-4.2 8.5 4.4c4.7 2.5 9.3 4.5 10.3 4.5 2.3 0 25.3 7.7 26.5 8.9.5.5-.5 2.9-2.2 5.6-6.4 10.1-7.8 20.4-5.1 38 1.5 9.8 9.9 32.2 14.6 38.6 5.7 7.8 14.1 12.5 28.5 15.8 15.5 3.6 19.4 3.6 28.7.2 4.5-1.6 10.7-4.3 13.6-5.9l5.3-2.9.7 7.9c1 12.5 4.1 25.9 7.5 32.6 3.7 7.3 13.2 17.7 21.6 23.8 16.8 11.9 43.7 21.9 80.4 29.9 6.8 1.5 14.2 3.4 16.5 4.2 3.2 1.3 10.9 1.8 34.6 2.4 16.8.5 38.1 1.1 47.4 1.5 11.8.5 19.6.3 25.5-.6 12-1.8 28.3-7.3 34-11.4 6.5-4.8 20.1-19.1 24.4-25.6 3.5-5.3 3.6-6 4.8-19.8 3.2-35.8-5.5-78.4-21-103.6l-2.1-3.4 7.2-1.2c4-.7 9.6-2.1 12.3-3.1 2.8-1.1 5.1-1.9 5.2-1.9.1 0 .4 3.5.7 7.7 1.4 17.4 2.9 27.3 5.6 38 8.3 32.3 24.2 55.6 45.9 67.1 9.4 5 16.5 7 30.1 8.2 5.8.6 13.9 1.8 18 2.8 10.9 2.5 36.1 2.4 45-.2 9.1-2.7 33.1-13.9 41.5-19.4 3.9-2.5 12.4-10 19.1-16.7 10.3-10.2 12.6-13.1 15.6-19.5 5.1-11 6.2-16.6 6.1-32-.1-11.5-.5-15.2-3.1-25-5.1-19.6-14.1-37.9-26.1-52.9-10.6-13.2-26.5-30.6-42.7-46.9L917.1 744h9.4c16 0 31.1-3.7 45.7-11.2 16-8.2 38.9-27.8 51.7-44.1 17.2-22 22.7-27.4 33.6-32.7 11.3-5.6 19.3-6.9 48.4-8 39.9-1.6 60.1-5 74.5-12.8 6.7-3.6 14.8-11.7 18-17.9 1.9-3.9 3.3-5.4 5.8-6.2 5.6-1.7 14.8-3 28.8-4.1 21.2-1.5 29.1-4.8 41.6-17.4 8.7-8.8 20.4-25.5 23.5-33.6 3.6-9.4 2.2-17.6-4.8-29.4-4.9-8.3-32.2-35.5-39.1-39l-5-2.5 3.5-3.8c11.2-12.1 19.3-29.1 24-50.6 2.7-12.4 2.5-43.8-.4-56.2-10.9-46.2-39.9-72.3-71.2-63.9zm-114.7 58.6c.8 1.3 2.1 4.6 2.9 7.4 1.3 4.6 1.3 5.8-.1 11.5-2.4 9.7-2.3 42.5.2 53.9 8.9 41 32.2 67.1 60 67.1 12.5 0 18.9-2.8 34.7-14.9 3.9-3 4.4-3.1 6.5-1.8 5.8 3.9 14.3 5.7 25.7 5.5 16.7-.2 23 1.9 33.8 11.4 16.2 14.2 25.9 26 28 33.9 1.2 4.3 1.1 4.8-2.4 11.1-8.2 14.6-19.4 27.4-27.7 31.7-4.1 2-13.5 3.7-27 4.6-5.2.3-11.5 1-14 1.4-2.5.5-9.6.4-16-.1-38.7-3.3-61.6-15.8-79.7-43.5-3-4.6-5.9-8.4-6.4-8.4-1.3 0-13.9 7.3-13.9 8 0 .4 2.8 4.8 6.1 10 10.3 15.6 24 28.7 38 36.4 10.8 5.9 27.2 11.3 40.2 13.1 4.2.6 4.6.8 3.7 2.5-2 3.6-8.3 9-13.7 11.6-11.5 5.4-29.6 7.9-68.3 9.4-27.9 1.1-36 2.5-49.4 8.9-14.9 7-21.8 13.3-39.5 36-13.6 17.5-33.9 34.9-49.4 42.4-21.7 10.6-49.5 11.4-84 2.7-6.7-1.7-12.3-3.2-12.4-3.4-.1-.1.5-2.4 1.3-5.1 2.9-9.7 6.5-26.3 11-50.5 6.9-37.9 10.1-49.4 17.4-64 4.9-9.7 10-16.7 17.9-24.5l7.1-7 18.3.3c25.7.5 39.1-2.6 53.7-12.3 15-10 24.4-23.2 38.9-54.5l8-17.5 3.6-21.5c9.6-57.7 13.1-67.6 30.1-84.2 10.1-9.9 14.1-11.7 16.8-7.6zM910.3 522.3c3.1 1.6 7.4 4.8 9.3 7 3.1 3.4 3.5 4.4 3.1 7.5-.9 5.4-4.9 10.4-14.5 18.6-17.7 15.1-28.8 32.3-36.1 56.3-3.6 11.6-4.8 17-10.1 44.8-3.5 18.8-12.5 54.3-16.3 65.1-2.1 5.6-6.1 13.5-11.8 22.9-2.7 4.4-8 15-11.8 23.7-14 31.5-31.9 55.2-48 63.2-12.1 6.1-24.1 7.7-34.3 4.7-3.8-1.1-8.1-2.9-9.8-4.1-8.8-6.3-27.6-13.1-46.8-16.9-37.1-7.4-91.1-7.5-126.7-.1-22 4.6-33.2 9.5-44.2 19.3-6.7 6-8.9 6.7-18.4 5.7-23.5-2.4-36.5-6.1-73.9-21.2-21.1-8.5-25-9.9-40.6-14.7-15.8-4.9-24.9-10.7-28.9-18.4-8.1-15.5-21.8-28.2-50-45.9-15.6-9.8-18.1-11-30-14.6-14.5-4.5-25.2-6.2-38.2-6.2h-11.4l-6.6-5.8C199 699.8 187 682.4 187 673.7c0-5.4 5.4-10.8 13-13.1 7.9-2.4 19.6-3.6 25.5-2.6 17.8 3.1 60.5 16 81.3 24.6 25.1 10.4 54.6 28.2 90.4 54.6 21.1 15.6 48.4 25.9 77.5 29.3 16 1.9 20.6 1.9 36.7 0 17.7-2.1 31.6-5.3 62.3-14.6 45.5-13.7 56.4-15.9 80.2-15.9h15.4l29.1 9.9c16 5.5 32 11.2 35.4 12.6 8.2 3.4 15.3 4.5 22.2 3.4 28.4-4.6 50.3-40.2 67-109 5.6-23 17.5-61.2 24.6-79 13.6-34.5 26.6-51.2 42.2-54.5 7.6-1.6 13.5-.8 20.5 2.9zM48.8 588.6c8.1 1.6 14.6 3.8 61.7 20.4 16 5.6 37.3 13.1 47.5 16.6 10.2 3.6 22.1 7.8 26.5 9.4 4.4 1.6 10.3 3.7 13.2 4.6l5.2 1.8-7.3 2.6c-20.3 7.2-28.7 19.3-25.1 36.2.7 3.6 2.3 8.5 3.5 10.8l2.2 4.3-3.9-2.4c-15.1-9.1-55.2-36.8-79.3-54.7-39.3-29.2-48-36.8-55.3-48.5-1.7-2.7-1.7-2.7.8-2.7 1.4 0 6.1.7 10.3 1.6zm197.5 148.5c16 2.4 27.3 6.5 41.7 15.2 16.8 10.2 31.1 20.9 37.9 28.3 5.2 5.7 11.1 14.8 11.1 17.1 0 .7-1.8 3.6-4 6.5-9.7 12.6-14.6 28.2-13.8 44 .2 4.8.2 8.8-.1 8.8-.3 0-6.7-.7-14.1-1.5-47.3-5.1-75.5 3.6-96.4 29.7-10.1 12.6-18.2 29.2-25.1 51.7l-3.2 10.5-6.1-5.8c-7.8-7.4-11.2-12.8-17.2-27-12.3-28.9-15.6-51.8-11-74.8 6-29.1 22.6-56 55.4-89.6l13.9-14.2h11.9c6.6 0 15.2.5 19.1 1.1zm635.4 2.4c2.8.8 7.4 3.3 10.2 5.5 7.6 6 34.1 31.1 39.5 37.4l4.7 5.5-7.2 3.7c-23.5 11.8-46.2 29.8-63.4 50.4-22.6 27.1-33.4 58.8-29.5 86.6.7 4.9 1.9 10.6 2.6 12.8 2.3 6.4 1.9 7.1-2.2 4.6-17.8-10.4-31.1-32.9-37.6-63-1.3-6.1-2.2-15.2-2.5-25.6l-.6-16.1 3.5-2.1c10.8-6.7 20.2-21.4 33.3-52.2 11.7-27.5 20.6-42.9 27.5-47.7 3.1-2.2 4.2-2.4 10-1.9 3.6.3 8.9 1.3 11.7 2.1zm73.2 69c15.7 16.9 27.6 39.7 32.2 62 1.6 8 1.6 22.7 0 29.5-1.5 5.9-5.6 15-6.9 15-.4 0-1.4-2.1-2.1-4.8-2.4-8.5-10.1-25.7-15.6-35-10.7-18.2-21.2-30.1-44-50l-5-4.4 2.5-1.8c6.8-5.2 28.8-16.8 32.1-17 .4 0 3.4 2.9 6.8 6.5zm-286.4 21.4c30.4 5 49.1 12.2 60.2 23.2 6.9 6.7 13.7 16.4 12.8 17.9-.3.6-2.3 1-4.3 1s-8.9.9-15.2 2c-49.1 8.3-84 30.8-111.2 71.5-7.5 11.3-17.7 30.4-22.5 42.2-1.2 2.9-2.7 5.3-3.3 5.3-.7 0-5.5-1.1-10.8-2.6-40.7-10.7-65.2-24.9-72.8-42-2.5-5.7-5.4-24-5.4-34.2 0-22.3 8.5-46.2 21.6-61 12-13.6 25-19.1 56.4-23.7 15.5-2.2 17.7-2.3 51-2 25.3.3 32.7.7 43.5 2.4zm241.8 11c27 23.5 41.2 43.7 50.5 71.9 5.4 16.3 5.9 14.7-5.5 22.8-5.4 3.9-11.7 8.3-14 9.8L937 948l-.6-2.7c-8.5-37.1-26-66.9-51.7-88.5l-5.8-4.8 9.9-10c5.4-5.5 10.2-10 10.6-10 .4 0 5.3 4 10.9 8.9zm-31.5 33.7c18.9 17.5 32.4 41.5 39.8 70.3 1.3 5.1 2.1 9.7 1.9 10.1-1.1 1.7-14.1 3.3-23.4 2.7-10.3-.5-32.2-5-35.7-7.2-2.7-1.7-7.1-15.1-8.4-25.3-1.5-11.9.2-24.8 5.1-38.2 2.9-7.7 9.8-20 11.3-20 .7 0 4.9 3.4 9.4 7.6zm-584.3 5.2c14.3 27.2 20.5 50.3 20.5 75.7-.1 11.2-1.4 26.2-2.5 27.3-.2.2-6.2-.1-13.3-.8l-12.8-1.3 1.9-14.1c1.4-10.8 1.7-17.7 1.3-29.6-.8-22.9-5-38.7-15.1-56.4-2.4-4.3-4.2-8.3-3.9-8.8.3-.5 4.8-.7 10.1-.6l9.5.3 4.3 8.3zm25.6-5.2c3.3.6 3.8 1.1 5.9 6.3 3.6 8.7 12.6 26.5 19.2 37.9 9 15.4 11.7 26.5 8.5 34.8-.7 1.7-5.9 7.6-11.7 13.1l-10.5 10.1v-21.2c0-18.3-.3-22.5-2.3-32-2.8-13-7.8-27.5-13.7-40.3l-4.4-9.3h2.7c1.5 0 4.3.3 6.3.6zm-62.5 11.1c9.7 16.2 13.6 28.9 14.9 48.3.8 11.6-1.4 39.7-3.5 42.9-2 3.4-72-20.5-72-24.5 0-2.6 8.8-28 12.3-35.8 8.2-17.5 20.9-31.9 34-38.2 3.8-1.8 7.3-3.1 7.8-2.9.4.3 3.3 4.8 6.5 10.2zm491.4 8.5c11.5 25.6 13.2 59.6 3.8 79.5-1.1 2.4-2.3 4.3-2.7 4.3-.4 0-1.2-3.6-1.9-8-2.9-18.2-10.5-37.6-20-50.9-2.5-3.6-8.4-10.5-13-15.3-4.6-4.7-7.9-8.8-7.5-9.1 1.7-1 16.2-3.8 26.3-5.1 5.8-.8 10.9-1.4 11.3-1.5.5 0 2.1 2.7 3.7 6.1zm-49 18.5c15.6 16 23.2 28.4 28 45.4 2.5 9 5 24.6 5 31.6 0 4.8-.2 5.4-3.1 6.8-2.9 1.6-16.1 4.5-19.9 4.5-1.5 0-2.1-1.3-3-5.8-3.9-19.2-11.7-38.4-21.8-53.6-4.6-7-15.1-18.3-21-22.8l-3.3-2.5 4.3-2.9c8.4-5.7 22.2-12.3 23.8-11.4.8.4 5.8 5.2 11 10.7zm-39.7 25.6c14.2 13.8 23.6 32.9 30.1 61.1l.7 2.9-15.3-.7c-8.4-.4-26.1-1.1-39.3-1.6-25.8-1-28.6-1.3-30.9-3.9-1.3-1.5-1.1-2.5 2.6-10.6 8.5-18.8 20.7-37.9 32-50l7-7.5 4.2 3c2.4 1.6 6.4 4.9 8.9 7.3z"/></svg>